<svg xmlns="http://www.w3.org/2000/svg" width="80" height="60.001" viewBox="0 0 80 60.001">
  <g id="_015-sun_umbrella" data-name="015-sun umbrella" transform="translate(4.172 -2.657)">
    <rect id="Rechteck_506" data-name="Rechteck 506" width="80" height="60" transform="translate(-4.172 2.657)" fill="none"/>
    <path id="Pfad_343" data-name="Pfad 343" d="M58.984,147.929c-9.993-7.785-21.743-3.225-33.325-.2l-5.219-19.477a6.458,6.458,0,0,1,3.016.788,1.752,1.752,0,0,0,2.373-.608,6.451,6.451,0,0,1,8.684-2.3,1.748,1.748,0,0,0,2.484-2,18.8,18.8,0,0,0-21.343-13.739l-.829-3.095a1.748,1.748,0,1,0-3.376.9l.829,3.095a18.805,18.805,0,0,0-11.61,22.59,1.749,1.749,0,0,0,3.183.443,6.445,6.445,0,0,1,8.673-2.315,1.75,1.75,0,0,0,2.318-.637,6.46,6.46,0,0,1,2.223-2.214l5.2,19.4c-6.682,1.5-13.4,2.093-19.785-.836A1.748,1.748,0,0,0,1.021,150.9c20.028,9.181,41.055-11.71,55.814-.21a1.748,1.748,0,0,0,2.148-2.758ZM32.4,121.859a9.942,9.942,0,0,0-7.047,1.959,22,22,0,0,0-6.385-10.21A15.355,15.355,0,0,1,32.4,121.859ZM3.511,129.608a15.36,15.36,0,0,1,7.523-13.878,22,22,0,0,0-.428,12.037A9.931,9.931,0,0,0,3.511,129.608Zm10.514-2.573a18.283,18.283,0,0,1,1.049-12.08,18.267,18.267,0,0,1,6.952,9.934A9.931,9.931,0,0,0,14.026,127.034Z" transform="translate(-1 -90.643)" fill="#fdc500"/>
    <path id="Pfad_344" data-name="Pfad 344" d="M272.042,109.451H273.9a1.748,1.748,0,0,0,0-3.5h-1.858a1.748,1.748,0,0,0,0,3.5Z" transform="translate(-239.8 -90.609)" fill="#fdc500"/>
    <path id="Pfad_345" data-name="Pfad 345" d="M346.526,82.3a5.873,5.873,0,1,0-5.873-5.873A5.88,5.88,0,0,0,346.526,82.3Zm0-8.251a2.377,2.377,0,1,1-2.377,2.377,2.38,2.38,0,0,1,2.377-2.377Z" transform="translate(-301.961 -59.33)" fill="#fdc500"/>
    <path id="Pfad_346" data-name="Pfad 346" d="M377.8,5.354a1.748,1.748,0,0,0,1.748-1.748V1.748a1.748,1.748,0,1,0-3.5,0V3.606A1.748,1.748,0,0,0,377.8,5.354Z" transform="translate(-333.238 3)" fill="#fdc500"/>
    <path id="Pfad_347" data-name="Pfad 347" d="M302.966,35.33a1.748,1.748,0,0,0,2.472-2.472l-1.314-1.314a1.748,1.748,0,0,0-2.472,2.472Z" transform="translate(-267.051 -24.416)" fill="#fdc500"/>
    <path id="Pfad_348" data-name="Pfad 348" d="M302.966,170.107l-1.314,1.314a1.748,1.748,0,0,0,2.472,2.472l1.314-1.314a1.748,1.748,0,1,0-2.472-2.472Z" transform="translate(-267.051 -146.834)" fill="#fdc500"/>
    <path id="Pfad_349" data-name="Pfad 349" d="M376.055,197.7v1.858a1.748,1.748,0,1,0,3.5,0V197.7a1.748,1.748,0,1,0-3.5,0Z" transform="translate(-333.238 -170.124)" fill="#fdc500"/>
    <path id="Pfad_350" data-name="Pfad 350" d="M440.2,170.107a1.748,1.748,0,0,0,0,2.472l1.314,1.314a1.748,1.748,0,0,0,2.472-2.472l-1.314-1.314A1.747,1.747,0,0,0,440.2,170.107Z" transform="translate(-389.459 -146.834)" fill="#fdc500"/>
    <path id="Pfad_351" data-name="Pfad 351" d="M466.051,107.7a1.748,1.748,0,0,0,1.748,1.748h1.858a1.748,1.748,0,0,0,0-3.5H467.8A1.748,1.748,0,0,0,466.051,107.7Z" transform="translate(-412.747 -90.608)" fill="#fdc500"/>
    <path id="Pfad_352" data-name="Pfad 352" d="M442.675,35.33l1.314-1.314a1.748,1.748,0,1,0-2.472-2.472L440.2,32.858a1.748,1.748,0,0,0,2.472,2.472Z" transform="translate(-389.459 -24.416)" fill="#fdc500"/>
  </g>
</svg>
