<svg xmlns="http://www.w3.org/2000/svg" width="80" height="60" viewBox="0 0 80 60">
  <g id="_020-swimmer" data-name="020-swimmer" transform="translate(-4 -49.34)">
    <rect id="Rechteck_505" data-name="Rechteck 505" width="80" height="60" transform="translate(4 49.34)" fill="none"/>
    <path id="Pfad_335" data-name="Pfad 335" d="M2.592,101.214c26.386-7.5,36.03,7.657,65.319.012a2.034,2.034,0,1,0-1.027-3.936,59.936,59.936,0,0,1-15.248,2.063l-5.9-9.5a9.1,9.1,0,1,0-1.167-1.882L36.5,74.96,48.477,71.5A6.018,6.018,0,0,0,45.14,59.939L27.011,65.171a7.376,7.376,0,0,0-4.224,10.98l5.479,8.831c-3.95,2.452-16.478,10.22-16.611,10.313A60.207,60.207,0,0,0,1.48,97.3a2.034,2.034,0,0,0,1.112,3.913ZM49.176,80.682a5.052,5.052,0,1,1,.219,7.141A5.051,5.051,0,0,1,49.176,80.682ZM32.8,84.566l-6.552-10.56a3.31,3.31,0,0,1,1.9-4.927l18.128-5.231A1.95,1.95,0,1,1,47.349,67.6L32.794,71.8a2.035,2.035,0,0,0-1.164,3.027L46.721,99.146c-9.491-.8-17.2-3.659-26.967-4.094L32.14,87.367a2.034,2.034,0,0,0,.656-2.8Z" transform="translate(8.998 -7)" fill="#fdc500"/>
    <path id="Pfad_336" data-name="Pfad 336" d="M66.882,392.191c-28.022,7.315-37.855-7.82-65.4.012a2.034,2.034,0,1,0,1.112,3.913c26.386-7.5,36.03,7.657,65.319.012a2.034,2.034,0,0,0-1.027-3.936Z" transform="translate(9 -292.409)" fill="#fdc500"/>
  </g>
</svg>
