<svg xmlns="http://www.w3.org/2000/svg" width="80" height="60" viewBox="0 0 80 60">
  <g id="phone-call" transform="translate(4.807 9.932)">
    <rect id="Rechteck_509" data-name="Rechteck 509" width="80" height="60" transform="translate(-4.807 -9.932)" fill="none"/>
    <g id="Gruppe_688" data-name="Gruppe 688" transform="translate(0.344 0)">
      <path id="Pfad_359" data-name="Pfad 359" d="M35.318,52.282a4.356,4.356,0,0,0-3.16-1.449,4.5,4.5,0,0,0-3.2,1.44l-2.954,2.945c-.243-.131-.486-.252-.72-.374-.337-.168-.654-.327-.925-.5a32.107,32.107,0,0,1-7.694-7.011,18.942,18.942,0,0,1-2.524-3.982c.767-.7,1.477-1.43,2.169-2.131.262-.262.524-.533.785-.795a4.289,4.289,0,0,0,0-6.469l-2.552-2.552c-.29-.29-.589-.589-.869-.888-.561-.58-1.15-1.178-1.757-1.739a4.425,4.425,0,0,0-3.132-1.374A4.579,4.579,0,0,0,5.609,28.78L5.59,28.8,2.412,32.005A6.839,6.839,0,0,0,.383,36.352a16.388,16.388,0,0,0,1.2,6.936A40.251,40.251,0,0,0,8.731,55.217,43.992,43.992,0,0,0,23.38,66.688a22.824,22.824,0,0,0,8.227,2.431c.2.009.4.019.589.019a7.044,7.044,0,0,0,5.394-2.318c.009-.019.028-.028.037-.047a21.253,21.253,0,0,1,1.636-1.692c.4-.383.813-.785,1.215-1.206a4.664,4.664,0,0,0,1.412-3.235,4.493,4.493,0,0,0-1.44-3.206Zm3.347,9.844c-.009,0-.009.009,0,0-.365.393-.739.748-1.141,1.14a24.58,24.58,0,0,0-1.8,1.87A4.507,4.507,0,0,1,32.2,66.622c-.14,0-.29,0-.43-.009a20.276,20.276,0,0,1-7.292-2.188,41.526,41.526,0,0,1-13.8-10.807A37.952,37.952,0,0,1,3.954,42.41a13.348,13.348,0,0,1-1.047-5.852A4.291,4.291,0,0,1,4.2,33.782l3.188-3.188a2.125,2.125,0,0,1,1.421-.664,2,2,0,0,1,1.365.654l.028.028c.57.533,1.112,1.084,1.683,1.673.29.3.589.6.888.907l2.552,2.552a1.784,1.784,0,0,1,0,2.9c-.271.271-.533.542-.8.8-.785.8-1.533,1.552-2.346,2.281-.019.019-.037.028-.047.047a1.907,1.907,0,0,0-.486,2.122l.028.084a20.489,20.489,0,0,0,3.02,4.927l.009.009A34.312,34.312,0,0,0,23,56.47a12.763,12.763,0,0,0,1.15.626c.337.168.654.327.925.5.037.019.075.047.112.065a2.026,2.026,0,0,0,.925.234,2,2,0,0,0,1.421-.645l3.2-3.2a2.115,2.115,0,0,1,1.412-.7,1.9,1.9,0,0,1,1.346.682l.019.019L38.655,59.2A1.848,1.848,0,0,1,38.665,62.126Z" transform="translate(-0.344 -24.844)" fill="#fdc500"/>
      <path id="Pfad_360" data-name="Pfad 360" d="M245.983,88.429a12.031,12.031,0,0,1,9.8,9.8,1.254,1.254,0,0,0,1.243,1.047,1.67,1.67,0,0,0,.215-.019,1.263,1.263,0,0,0,1.038-1.458,14.548,14.548,0,0,0-11.854-11.854,1.269,1.269,0,0,0-1.458,1.028A1.248,1.248,0,0,0,245.983,88.429Z" transform="translate(-222.078 -77.893)" fill="#fdc500"/>
      <path id="Pfad_361" data-name="Pfad 361" d="M269.761,19.539A23.955,23.955,0,0,0,250.241.019a1.26,1.26,0,1,0-.411,2.487A21.4,21.4,0,0,1,267.274,19.95,1.254,1.254,0,0,0,268.517,21a1.669,1.669,0,0,0,.215-.019A1.239,1.239,0,0,0,269.761,19.539Z" transform="translate(-225.551 0)" fill="#fdc500"/>
    </g>
  </g>
</svg>
