<svg xmlns="http://www.w3.org/2000/svg" width="80" height="60" viewBox="0 0 80 60">
  <g id="_032-sauna" data-name="032-sauna" transform="translate(2.808 3.604)">
    <rect id="Rechteck_507" data-name="Rechteck 507" width="80" height="60" transform="translate(-2.808 -3.604)" fill="none"/>
    <g id="Gruppe_679" data-name="Gruppe 679" transform="translate(7.538 6.931)">
      <g id="Gruppe_678" data-name="Gruppe 678">
        <path id="Pfad_338" data-name="Pfad 338" d="M67.854,65.219a6.3,6.3,0,1,0,6.3,6.3A6.307,6.307,0,0,0,67.854,65.219Zm0,9.414a3.114,3.114,0,1,1,3.114-3.114A3.117,3.117,0,0,1,67.854,74.633Z" transform="translate(-61.554 -65.219)" fill="#fdc500"/>
      </g>
    </g>
    <g id="Gruppe_681" data-name="Gruppe 681" transform="translate(1 21.392)">
      <g id="Gruppe_680" data-name="Gruppe 680">
        <path id="Pfad_339" data-name="Pfad 339" d="M39.313,229.147l-5.641-15.908H22.742l-5.005-11.88H9.568L3.34,218.3a3.94,3.94,0,0,0-.168,2.113H0V223.6H26.972l5.312,8.86a3.9,3.9,0,0,0,7.028-3.312Zm-28.1-8.735,1.9-3.042,1.61,3.042Zm24.712,10.7a.718.718,0,0,1-.906-.287l-6.24-10.408H18.324l-4.989-9.426-5.658,9.072a.749.749,0,0,1-.639.354.753.753,0,0,1-.707-1.013l5.461-14.854h3.829l5.005,11.88H31.421l4.888,13.787A.721.721,0,0,1,35.923,231.108Z" transform="translate(0 -201.359)" fill="#fdc500"/>
      </g>
    </g>
    <g id="Gruppe_683" data-name="Gruppe 683" transform="translate(33.817 0.004)">
      <g id="Gruppe_682" data-name="Gruppe 682">
        <path id="Pfad_340" data-name="Pfad 340" d="M314.34,11.971a6.033,6.033,0,0,0-1.413-3.937,2.922,2.922,0,0,1-.792-2.046,2.922,2.922,0,0,1,.792-2.047A6.034,6.034,0,0,0,314.34,0h-3.187a2.922,2.922,0,0,1-.792,2.046,6.034,6.034,0,0,0-1.413,3.937,6.033,6.033,0,0,0,1.413,3.937,3.041,3.041,0,0,1,0,4.093,6.192,6.192,0,0,0,0,7.875,2.923,2.923,0,0,1,.792,2.047h3.187A6.034,6.034,0,0,0,312.927,20a3.042,3.042,0,0,1,0-4.094A6.035,6.035,0,0,0,314.34,11.971Z" transform="translate(-308.949 -0.004)" fill="#fdc500"/>
      </g>
    </g>
    <g id="Gruppe_685" data-name="Gruppe 685" transform="translate(41.905 0.004)">
      <g id="Gruppe_684" data-name="Gruppe 684">
        <path id="Pfad_341" data-name="Pfad 341" d="M390.487,11.972a6.033,6.033,0,0,0-1.413-3.937,2.922,2.922,0,0,1-.792-2.046,2.922,2.922,0,0,1,.792-2.047A6.033,6.033,0,0,0,390.487.006H387.3a2.922,2.922,0,0,1-.792,2.046A6.034,6.034,0,0,0,385.1,5.989a6.033,6.033,0,0,0,1.413,3.937,3.041,3.041,0,0,1,0,4.093,6.192,6.192,0,0,0,0,7.874,2.922,2.922,0,0,1,.792,2.047h3.187A6.034,6.034,0,0,0,389.074,20a3.042,3.042,0,0,1,0-4.094A6.035,6.035,0,0,0,390.487,11.972Z" transform="translate(-385.096 -0.006)" fill="#fdc500"/>
      </g>
    </g>
    <g id="Gruppe_687" data-name="Gruppe 687" transform="translate(49.994 0.004)">
      <g id="Gruppe_686" data-name="Gruppe 686" transform="translate(0 0)">
        <path id="Pfad_342" data-name="Pfad 342" d="M466.634,11.973a6.033,6.033,0,0,0-1.413-3.937,2.921,2.921,0,0,1-.792-2.046,2.922,2.922,0,0,1,.792-2.047A6.033,6.033,0,0,0,466.634.006h-3.187a2.922,2.922,0,0,1-.792,2.046,6.034,6.034,0,0,0-1.413,3.937,6.033,6.033,0,0,0,1.413,3.937,3.041,3.041,0,0,1,0,4.093,6.192,6.192,0,0,0,0,7.874,2.923,2.923,0,0,1,.792,2.047h3.187A6.034,6.034,0,0,0,465.221,20a3.042,3.042,0,0,1,0-4.094A6.032,6.032,0,0,0,466.634,11.973Z" transform="translate(-461.243 -0.006)" fill="#fdc500"/>
      </g>
    </g>
  </g>
</svg>
