<svg xmlns="http://www.w3.org/2000/svg" width="80" height="60" viewBox="0 0 80 60">
  <g id="_007-basket" data-name="007-basket" transform="translate(-7.69 -33.211)">
    <rect id="Rechteck_510" data-name="Rechteck 510" width="80" height="60" transform="translate(7.69 33.211)" fill="none"/>
    <path id="Pfad_353" data-name="Pfad 353" d="M62.487,58.28H55.342a4.492,4.492,0,0,0-2.647-.893l-10.359-14a2.232,2.232,0,0,0-3.123-.468l-.718.531a2.232,2.232,0,0,0-.468,3.123L46.688,58.28H24.7l8.661-11.709a2.233,2.233,0,0,0-.467-3.123l-.718-.531a2.236,2.236,0,0,0-3.124.468l-10.358,14a4.493,4.493,0,0,0-2.648.893H8.893A.893.893,0,0,0,8,59.173v5.359a.893.893,0,0,0,.893.893h3.692l3.2,22.3a3.135,3.135,0,0,0,3.1,2.714H52.493a3.133,3.133,0,0,0,3.1-2.7l3.2-22.306h3.692a.893.893,0,0,0,.893-.893V59.173A.893.893,0,0,0,62.487,58.28ZM39.463,45.509a.447.447,0,0,1-.084-.332.451.451,0,0,1,.176-.294l.718-.53a.445.445,0,0,1,.625.093L51.542,58.834a.9.9,0,0,0,.818.356,2.679,2.679,0,1,1-2.154,1.593.893.893,0,0,0-.1-.888Zm8.546,14.558.376.508a4.489,4.489,0,0,0,.188,3.065H22.81A4.489,4.489,0,0,0,23,60.575l.375-.508Zm-31.444.193a2.687,2.687,0,0,1,2.458-1.07.893.893,0,0,0,.818-.356L30.485,44.446a.446.446,0,0,1,.624-.093l.718.53a.447.447,0,0,1,.094.625L21.278,59.9a.893.893,0,0,0-.1.888,2.68,2.68,0,1,1-4.611-.524Zm-6.779,3.38V60.066h4.84a4.477,4.477,0,0,0,0,3.573ZM53.821,87.488a1.344,1.344,0,0,1-1.328,1.162H18.887a1.346,1.346,0,0,1-1.329-1.172L14.39,65.426h1.65l.022.018a4.474,4.474,0,0,0,5.335-.018H49.985a4.474,4.474,0,0,0,5.335.018l.023-.018h1.647Zm7.773-23.848H56.755a4.482,4.482,0,0,0,0-3.573h4.837Z" transform="translate(3 2)" fill="#fdc500"/>
    <path id="Pfad_354" data-name="Pfad 354" d="M236.466,272h-3.573a.893.893,0,0,0-.893.893v16.078a.893.893,0,0,0,.893.893h3.573a.893.893,0,0,0,.893-.893V272.893A.893.893,0,0,0,236.466,272Zm-.893,16.078h-1.786V273.786h1.786Z" transform="translate(-195.989 -201.894)" fill="#fdc500"/>
    <path id="Pfad_355" data-name="Pfad 355" d="M124.466,272h-3.573a.893.893,0,0,0-.893.893v16.078a.893.893,0,0,0,.893.893h3.573a.893.893,0,0,0,.893-.893V272.893A.893.893,0,0,0,124.466,272Zm-.893,16.078h-1.786V273.786h1.786Z" transform="translate(-96.495 -201.894)" fill="#fdc500"/>
    <path id="Pfad_356" data-name="Pfad 356" d="M348.466,272h-3.573a.893.893,0,0,0-.893.893v16.078a.893.893,0,0,0,.893.893h3.573a.893.893,0,0,0,.893-.893V272.893A.893.893,0,0,0,348.466,272Zm-.893,16.078h-1.786V273.786h1.786Z" transform="translate(-295.484 -201.894)" fill="#fdc500"/>
    <path id="Pfad_357" data-name="Pfad 357" d="M96.362,209.611a.893.893,0,1,0-.187-1.249A.893.893,0,0,0,96.362,209.611Z" transform="translate(-75.174 -145.04)" fill="#fdc500"/>
    <path id="Pfad_358" data-name="Pfad 358" d="M401.448,209.611a.893.893,0,1,0-1.249-.187A.893.893,0,0,0,401.448,209.611Z" transform="translate(-345.252 -145.04)" fill="#fdc500"/>
  </g>
</svg>
