<svg xmlns="http://www.w3.org/2000/svg" width="80" height="60" viewBox="0 0 80 60">
  <g id="_047-branch" data-name="047-branch" transform="translate(-5.254 -20.734)">
    <rect id="Rechteck_511" data-name="Rechteck 511" width="80" height="60" transform="translate(5.254 20.734)" fill="none"/>
    <g id="Gruppe_677" data-name="Gruppe 677" transform="translate(9 32.297)">
      <path id="Pfad_337" data-name="Pfad 337" d="M54.5,33.7l-.034-1.21L53.3,32.2a36.741,36.741,0,0,0-7.88-.9c-5.922-.044-10.893,1.409-14.381,4.209l-.683.549A12.321,12.321,0,0,0,28.16,52.991V58.98a13.585,13.585,0,0,0-1.528-1.306,10.193,10.193,0,0,0-11.991-7.187l-.685.151C5.442,52.514.7,62.61.507,63.039L0,64.138l.922.785c.318.271,7.039,5.911,14.479,5.911a13.618,13.618,0,0,0,2.937-.313l.685-.151a10.2,10.2,0,0,0,7.821-8.1,17.849,17.849,0,0,1,1.316,1.835V79.141h3.194V56a12.346,12.346,0,0,0,14.427-.727l.683-.549h0C54.806,48.024,54.519,34.283,54.5,33.7ZM18.335,67.251l-.685.151C12.182,68.607,6.3,64.919,3.995,63.258c1.391-2.477,5.181-8.3,10.648-9.5l.685-.151a6.99,6.99,0,0,1,6.665,2.119c-5.274-.784-10.018,2.8-12.6,4.748l1.926,2.549c2.252-1.7,6.444-4.869,10.492-4.088a6.908,6.908,0,0,1,1.961.707A7,7,0,0,1,18.335,67.251Zm26.13-15.019-.683.549a9.124,9.124,0,0,1-12.349-.85c1.174-6.918,9.075-8.907,13.377-9.99l-.779-3.1a33.3,33.3,0,0,0-9.172,3.428,13.767,13.767,0,0,0-5.576,5.89,9.144,9.144,0,0,1,3.068-9.615L33.034,38c3.6-2.887,8.534-3.506,12.108-3.506h.175a35.711,35.711,0,0,1,5.972.553A35.682,35.682,0,0,1,50.54,41C49.786,44.5,48.119,49.3,44.465,52.232Z" transform="translate(0 -31.297)" fill="#fdc500"/>
    </g>
  </g>
</svg>
