<svg id="background-bubble-top" xmlns="http://www.w3.org/2000/svg" width="1920" height="103.729" viewBox="0 0 1920 103.729" preserveAspectRatio="none">
  <path id="Differenzmenge_11" data-name="Differenzmenge 11" d="M1920,82H0V55.528c3.516.283,8.062.427,13.512.427,27.475,0,79.4-3.589,158.752-10.973,69.365-6.455,150.988-15,223-22.539l.026,0c95.6-10.008,178.161-18.651,215.68-20.885C628.39.524,646.378,0,664.436,0c20.456,0,41.681.672,63.086,2,20.409,1.264,41.637,3.164,63.095,5.646,20.312,2.35,41.505,5.3,62.992,8.773,20.135,3.253,41.256,7.081,62.778,11.378,43.916,8.731,83,15.13,119.487,19.561,20.51,2.49,40.63,4.4,59.8,5.67,20.386,1.352,40.474,2.038,59.706,2.038,22.674,0,45.022-.954,66.422-2.834,20.193-1.7,42.3-4.44,67.6-8.377,22.554-3.51,45.5-7.626,67.685-11.607,27.99-5.022,56.933-10.214,85.356-14.236,15.3-2.165,29.228-3.828,42.584-5.083,14.988-1.408,28.884-2.272,42.48-2.641,7.681-.207,15.578-.312,23.472-.312,21.414,0,43.3.736,66.925,2.251,21.023,1.348,42.935,3.286,66.989,5.926,44.655,4.9,89.887,11.515,133.63,17.911l2.386.349,12.013,1.755c7.323,1.063,14.982,1.864,22.765,2.381,7.4.49,15.135.739,23,.739,12.71,0,25.85-.62,40.173-1.894.212,16.37,1.107,41.533,1.145,42.6h0Z" transform="translate(0 0)" fill="#003f88" opacity="0.1"/>
  <path id="Differenzmenge_5" data-name="Differenzmenge 5" d="M13345,601.729H11425V555.3l45.979,2.97c13.329.927,31.365,2.114,52.7,3.066,24.221,1.081,47.866,1.63,70.279,1.63,38.177,0,74.023-1.58,106.543-4.7,41.752-4.13,84.318-11.344,125.483-18.32,24.673-4.181,50.186-8.505,75.224-12.112,28.073-4.045,52.581-6.743,74.925-8.248,15.717-1.055,31.946-1.59,48.236-1.59,18.449,0,37.595.686,56.9,2.04,18.416,1.291,37.564,3.231,56.913,5.766,18.325,2.4,37.443,5.414,56.821,8.958,18.168,3.322,37.22,7.231,56.627,11.617,39.619,8.916,74.877,15.45,107.788,19.974,18.5,2.543,36.646,4.491,53.944,5.79,18.393,1.381,36.514,2.082,53.859,2.082,20.454,0,40.612-.974,59.913-2.894,18.211-1.735,38.156-4.533,60.976-8.553,20.34-3.584,41.031-7.786,61.042-11.849l.015,0c25.251-5.128,51.362-10.431,77-14.537,13.8-2.211,26.369-3.909,38.414-5.19,13.522-1.438,26.057-2.32,38.319-2.7,6.918-.212,14.043-.319,21.177-.319,19.317,0,39.063.752,60.367,2.3,18.966,1.377,38.73,3.356,60.424,6.051,40.267,5,81.06,11.754,120.509,18.284l.027,0,1.685.279q5.659.937,11.313,1.871c6.6,1.085,13.5,1.9,20.5,2.428,6.67.5,13.647.755,20.738.755,41.911,0,84.866-8.669,126.407-17.053l.042-.008c17.558-3.543,34.141-6.889,50.677-9.626a412.517,412.517,0,0,1,48.226-5.527v73.787Z" transform="translate(-11425 -498.001)" fill="#003f88"/>
</svg>
