<svg xmlns="http://www.w3.org/2000/svg" width="158.816" height="25.515" viewBox="0 0 158.816 25.515">
  <path id="LOGO" d="M13.176-25.088c-7.314,0-11.895,4.9-11.895,12.766C1.282-4.478,5.862.427,13.176.427c7.3,0,11.895-4.9,11.895-12.749C25.071-20.183,20.474-25.088,13.176-25.088Zm0,4.307c4.033,0,6.614,3.281,6.614,8.459,0,5.161-2.581,8.425-6.614,8.425-4.05,0-6.631-3.264-6.631-8.425C6.545-17.5,9.143-20.781,13.176-20.781Zm15.21-3.879V0h5.161V-7.776h4.614c5.2,0,8.8-3.384,8.8-8.442,0-5.076-3.486-8.442-8.545-8.442Zm5.161,4.084h3.5c2.957,0,4.666,1.572,4.666,4.375,0,2.82-1.726,4.392-4.683,4.392H33.547ZM61.062,0V-20.405h7.144v-4.255H48.774v4.255H55.9V0ZM76.221,0V-24.661H71.06V0Zm30.215,0V-24.661h-5.981L93.447-7.178h-.137L86.3-24.661H80.322V0h4.6V-16.646h.137l6.7,16.406H95l6.7-16.406h.137V0ZM115.7,0V-24.661h-5.161V0Zm3.179-7.024c.154,4.631,3.931,7.451,9.861,7.451,6.118,0,10-3.025,10-7.81,0-3.76-2.153-5.879-7.092-6.938l-2.991-.632c-2.837-.649-4.033-1.5-4.033-3.025,0-1.829,1.709-3.042,4.255-3.042,2.581,0,4.409,1.265,4.58,3.35h4.836c-.085-4.46-3.691-7.417-9.434-7.417-5.5,0-9.434,3.008-9.434,7.554,0,3.606,2.239,5.913,6.785,6.887l3.213.7c2.974.667,4.153,1.555,4.153,3.162,0,1.812-1.88,3.127-4.631,3.127-2.734,0-4.854-1.333-5.093-3.367ZM152.954,0V-20.405H160.1v-4.255H140.667v4.255h7.126V0Z" transform="translate(-1.282 25.088)" fill="#00296b"/>
</svg>
